<?xml version="1.0" encoding="UTF-8" standalone="no"?>
<!-- Created with Inkscape (http://www.inkscape.org/) -->

<svg
   xmlns:dc="http://purl.org/dc/elements/1.1/"
   xmlns:cc="http://creativecommons.org/ns#"
   xmlns:rdf="http://www.w3.org/1999/02/22-rdf-syntax-ns#"
   xmlns:svg="http://www.w3.org/2000/svg"
   xmlns="http://www.w3.org/2000/svg"
   xmlns:sodipodi="http://sodipodi.sourceforge.net/DTD/sodipodi-0.dtd"
   xmlns:inkscape="http://www.inkscape.org/namespaces/inkscape"
   width="96"
   height="96"
   id="svg3088"
   version="1.1"
   inkscape:version="0.91 r13725"
   sodipodi:docname="kullo_notification.svg">
  <defs
     id="defs3090" />
  <sodipodi:namedview
     id="base"
     pagecolor="#5c4444"
     bordercolor="#666666"
     borderopacity="1.0"
     inkscape:pageopacity="0"
     inkscape:pageshadow="2"
     inkscape:zoom="5.6"
     inkscape:cx="16.286097"
     inkscape:cy="66.162617"
     inkscape:document-units="px"
     inkscape:current-layer="layer1"
     showgrid="false"
     inkscape:window-width="1863"
     inkscape:window-height="1056"
     inkscape:window-x="57"
     inkscape:window-y="24"
     inkscape:window-maximized="1"
     showguides="true"
     inkscape:guide-bbox="true">
    <sodipodi:guide
       position="0,4"
       orientation="0,1"
       id="guide4138"
       inkscape:label=""
       inkscape:color="rgb(0,0,255)" />
    <sodipodi:guide
       position="0,92"
       orientation="0,1"
       id="guide4140"
       inkscape:label=""
       inkscape:color="rgb(0,0,255)" />
    <sodipodi:guide
       position="4,0"
       orientation="1,0"
       id="guide4142"
       inkscape:label=""
       inkscape:color="rgb(0,0,255)" />
    <sodipodi:guide
       position="92,0"
       orientation="1,0"
       id="guide4144"
       inkscape:label=""
       inkscape:color="rgb(0,0,255)" />
  </sodipodi:namedview>
  <metadata
     id="metadata3093">
    <rdf:RDF>
      <cc:Work
         rdf:about="">
        <dc:format>image/svg+xml</dc:format>
        <dc:type
           rdf:resource="http://purl.org/dc/dcmitype/StillImage" />
        <dc:title></dc:title>
      </cc:Work>
    </rdf:RDF>
  </metadata>
  <g
     inkscape:label="Ebene 1"
     inkscape:groupmode="layer"
     id="layer1"
     transform="translate(0,-956.36217)">
    <g
       transform="matrix(0.88644777,0,0,-0.88644777,-524.30539,1393.3665)"
       id="g3067"
       style="fill:#ffffff;fill-opacity:1">
      <path
         d="m 620.25355,486.24632 c 0.268,2.788 3.147,4.24 8.245,4.227 l 4.575,-0.01 c 2.225,-0.006 7.452,-0.284 7.442,-4.132 l -9.863,-85.043 c -0.266,-2.787 -0.759,-4.238 -5.856,-4.228 l -4.574,0.013 c -2.226,0.006 -7.456,0.284 -7.445,4.131 l 7.476,85.042 z"
         style="fill:#ffffff;fill-opacity:1;fill-rule:nonzero;stroke:none"
         id="path58"
         inkscape:connector-curvature="0" />
      <path
         d="m 689.57095,470.09842 c 2.831,0.096 4.613,-2.356 5.171,-7.016 l 0.361,-3.051 c 0.242,-2.034 0.677,-4.789 -3.192,-5.252 l -86.559,-2.191 c -2.83,-0.096 -4.613,2.357 -5.169,7.014 l -0.497,4.183 c -0.24,2.03 -0.545,6.838 3.328,7.3 l 86.557,-0.987 z"
         style="fill:#ffffff;fill-opacity:1;fill-rule:nonzero;stroke:none"
         id="path62"
         inkscape:connector-curvature="0" />
      <path
         d="m 660.00255,485.77562 c 0.404,2.689 2.02,4.034 6.996,4.034 l 6.456,0 c 4.84,0 6.319,-1.479 6.319,-3.633 0,0 -9.099,-78.273 -9.099,-78.811 0,-3.09 1.209,-4.436 4.034,-4.436 1.883,0 3.363,0.808 3.902,0.808 0.806,0 1.072,-0.269 1.072,-1.479 0,-0.27 -0.132,-3.362 -0.94,-8.07 -0.807,-4.978 -7.126,-6.992 -11.836,-6.992 -10.484,0 -16.271,4.975 -16.271,17.079 0,4.167 9.367,81.5 9.367,81.5"
         style="fill:#ffffff;fill-opacity:1;fill-rule:nonzero;stroke:none"
         id="path66"
         inkscape:connector-curvature="0" />
      <path
         d="m 685.99275,437.29512 c 2.83,0.096 4.616,0.028 5.169,-4.631 l 0.499,-4.182 c 0.24,-2.031 0.541,-6.84 -3.33,-7.299 l -86.554,-4.579 c -2.834,-0.098 -4.618,2.359 -5.171,7.016 l -0.497,4.182 c -0.245,2.03 -0.548,6.839 3.329,7.301 l 86.555,2.192 z"
         style="fill:#ffffff;fill-opacity:1;fill-rule:nonzero;stroke:none"
         id="path70"
         inkscape:connector-curvature="0" />
    </g>
  </g>
</svg>
